<svg width="54" height="54" viewBox="0 0 54 54" fill="none" xmlns="http://www.w3.org/2000/svg">
<g clip-path="url(#clip0_11_210)">
<path fill-rule="evenodd" clip-rule="evenodd" d="M1.47141 7.37113C0 10.2589 0 14.0393 0 21.6V32.4C0 39.9607 0 43.7411 1.47141 46.6289C2.7657 49.1691 4.83094 51.2343 7.37113 52.5286C10.2589 54 14.0393 54 21.6 54H32.4C39.9607 54 43.7411 54 46.6289 52.5286C49.1691 51.2343 51.2343 49.1691 52.5286 46.6289C54 43.7411 54 39.9607 54 32.4V21.6C54 14.0393 54 10.2589 52.5286 7.37113C51.2343 4.83094 49.1691 2.7657 46.6289 1.47141C43.7411 0 39.9607 0 32.4 0H21.6C14.0393 0 10.2589 0 7.37113 1.47141C4.83094 2.7657 2.7657 4.83094 1.47141 7.37113ZM27.3621 16.1242C29.9801 16.0846 32.5103 17.0502 34.4063 18.8227L39.6489 13.6838C36.3292 10.6282 31.9233 8.9483 27.3621 9.00121C20.4192 9.00121 14.0704 12.8375 10.9532 18.9221C8.34906 24.0077 8.34894 30.0003 10.9528 35.086C14.0701 41.164 20.4192 45 27.3621 45C32.3146 45 36.4912 43.4061 39.5342 40.6548L39.5308 40.6522C43.0038 37.5173 44.9999 32.8887 44.9999 27.414C44.9999 26.1905 44.8987 24.9603 44.6828 23.7566H27.3625V30.6878H37.281C36.8694 32.9233 35.547 34.9008 33.6105 36.1574V36.1616C31.9651 37.2569 29.842 37.877 27.3689 37.877C22.5783 37.877 18.5165 34.709 17.0591 30.4497L17.0528 30.4497C16.2837 28.2142 16.2837 25.7921 17.0528 23.5566C18.5039 19.2915 22.5721 16.1242 27.3621 16.1242Z" fill="white"/>
</g>
<defs>
<clipPath id="clip0_11_210">
<rect width="54" height="54" fill="white"/>
</clipPath>
</defs>
</svg>
