<svg width="54" height="54" viewBox="0 0 54 54" fill="none" xmlns="http://www.w3.org/2000/svg">
<g clip-path="url(#clip0_11_214)">
<path fill-rule="evenodd" clip-rule="evenodd" d="M0 21.6C0 14.0393 0 10.2589 1.47141 7.37113C2.7657 4.83094 4.83094 2.7657 7.37113 1.47141C10.2589 0 14.0393 0 21.6 0H32.4C39.9607 0 43.7411 0 46.6289 1.47141C49.1691 2.7657 51.2343 4.83094 52.5286 7.37113C54 10.2589 54 14.0393 54 21.6V32.4C54 39.9607 54 43.7411 52.5286 46.6289C51.2343 49.1691 49.1691 51.2343 46.6289 52.5286C43.7411 54 39.9607 54 32.4 54H21.6C14.0393 54 10.2589 54 7.37113 52.5286C4.83094 51.2343 2.7657 49.1691 1.47141 46.6289C0 43.7411 0 39.9607 0 32.4V21.6ZM6.75 27C6.75 15.8169 15.8119 6.75 27 6.75C38.1831 6.75 47.25 15.8169 47.25 27C47.25 35.9353 41.4534 43.5291 33.3517 46.1852C32.3139 46.3877 31.9596 45.7549 31.9596 45.2233C31.9596 45.0061 31.9623 44.6233 31.966 44.1105C31.9735 43.0698 31.9849 41.4937 31.9849 39.6782C31.9849 37.7814 31.3268 36.5394 30.618 35.9319C35.1236 35.4341 39.8571 33.7213 39.8571 25.9419C39.8571 23.7313 39.0724 21.9257 37.7814 20.5082C37.9839 19.9969 38.6674 17.9381 37.5789 15.1487C37.5789 15.1487 35.883 14.6053 32.0355 17.2243C30.4155 16.7738 28.6943 16.551 26.973 16.5409C25.2518 16.551 23.5305 16.7738 21.9105 17.2243C18.0377 14.6053 16.3417 15.1487 16.3417 15.1487C15.2533 17.9381 15.9368 19.9969 16.1646 20.5082C14.8652 21.9257 14.0805 23.7313 14.0805 25.9419C14.0805 33.7011 18.8072 35.4426 23.3044 35.9488C22.7256 36.4551 22.2041 37.3477 22.0219 38.6572C20.8643 39.1753 17.9297 40.0697 16.1241 36.9731C16.1241 36.9731 15.0559 35.0291 13.0224 34.8874C13.0224 34.8874 11.0464 34.8621 12.8807 36.1176C12.8807 36.1176 14.2121 36.7419 15.1335 39.0791C15.1335 39.0791 16.3215 43.0177 21.9544 41.796C21.9591 42.7331 21.9663 43.5426 21.9719 44.1597C21.9763 44.6539 21.9797 45.0246 21.9797 45.2385C21.9797 45.7768 21.6084 46.4029 20.5959 46.2122C12.5516 43.5375 6.75 35.9488 6.75 27Z" fill="black"/>
</g>
<defs>
<clipPath id="clip0_11_214">
<rect width="54" height="54" fill="white"/>
</clipPath>
</defs>
</svg>
