<svg width="54" height="54" viewBox="0 0 54 54" fill="none" xmlns="http://www.w3.org/2000/svg">
<g clip-path="url(#clip0_11_220)">
<path d="M17.7946 28.5883C17.7946 30.5882 19.2562 32.2168 21.03 32.2168C22.8321 32.2168 24.2653 30.5882 24.2653 28.5885C24.2937 26.6028 22.8463 24.96 21.0301 24.96C19.2279 24.96 17.7946 26.5885 17.7946 28.5883Z" fill="white"/>
<path d="M29.7568 28.5883C29.7568 30.5882 31.2184 32.2168 32.9922 32.2168C34.8084 32.2168 36.2274 30.5882 36.2274 28.5885C36.2557 26.6028 34.8084 24.96 32.9922 24.96C31.1899 24.96 29.7568 26.5885 29.7568 28.5883Z" fill="white"/>
<path fill-rule="evenodd" clip-rule="evenodd" d="M1.47141 7.37113C0 10.2589 0 14.0393 0 21.6V32.4C0 39.9607 0 43.7411 1.47141 46.6289C2.7657 49.1691 4.83094 51.2343 7.37113 52.5286C10.2589 54 14.0393 54 21.6 54H32.4C39.9607 54 43.7411 54 46.6289 52.5286C49.1691 51.2343 51.2343 49.1691 52.5286 46.6289C54 43.7411 54 39.9607 54 32.4V21.6C54 14.0393 54 10.2589 52.5286 7.37113C51.2343 4.83094 49.1691 2.7657 46.6289 1.47141C43.7411 0 39.9607 0 32.4 0H21.6C14.0393 0 10.2589 0 7.37113 1.47141C4.83094 2.7657 2.7657 4.83094 1.47141 7.37113ZM32.1478 13.5019C34.6784 13.9394 37.1415 14.7034 39.4755 15.7747C39.4957 15.783 39.5123 15.798 39.5223 15.8175C43.5877 21.7972 45.5956 28.5426 44.845 36.308C44.8435 36.3244 44.8386 36.3402 44.8305 36.3545C44.8224 36.3688 44.8113 36.3812 44.7981 36.3908C41.7189 38.6521 38.7361 40.0249 35.7946 40.9349C35.7717 40.942 35.7472 40.9416 35.7245 40.9339C35.7019 40.9262 35.6822 40.9115 35.6683 40.892C34.9887 39.9464 34.3714 38.9492 33.8308 37.9022C33.8234 37.8879 33.8191 37.8721 33.8182 37.856C33.8173 37.8398 33.8198 37.8237 33.8256 37.8086C33.8313 37.7935 33.8402 37.7797 33.8516 37.7683C33.8631 37.7569 33.8768 37.748 33.8919 37.7422C34.8644 37.3764 35.8042 36.9291 36.7014 36.4051C36.7176 36.3953 36.7312 36.3818 36.7409 36.3655C36.7507 36.3493 36.7563 36.3309 36.7573 36.312C36.7583 36.2931 36.7546 36.2743 36.7465 36.2571C36.7385 36.24 36.7264 36.2251 36.7113 36.2137C36.5211 36.0722 36.3324 35.9236 36.1521 35.7751C36.1358 35.7618 36.1161 35.7534 36.0953 35.7509C36.0744 35.7484 36.0533 35.7518 36.0343 35.7608C30.2122 38.4508 23.8339 38.4508 17.9422 35.7608C17.9233 35.7524 17.9024 35.7494 17.8818 35.7521C17.8612 35.7549 17.8419 35.7634 17.8258 35.7766C17.6457 35.9252 17.4568 36.0722 17.2681 36.2137C17.253 36.2252 17.241 36.2402 17.2331 36.2574C17.2252 36.2747 17.2216 36.2936 17.2227 36.3125C17.2239 36.3314 17.2296 36.3498 17.2395 36.366C17.2495 36.3822 17.2632 36.3956 17.2795 36.4052C18.1764 36.9194 19.1086 37.3723 20.0878 37.7437C20.103 37.7492 20.1167 37.7579 20.1282 37.7692C20.1397 37.7804 20.1487 37.794 20.1546 37.809C20.1605 37.8239 20.1632 37.84 20.1624 37.8561C20.1617 37.8721 20.1575 37.8879 20.1502 37.9022C19.6209 38.9507 19.0036 39.9479 18.3112 40.8935C18.2969 40.9125 18.2771 40.9266 18.2546 40.934C18.232 40.9414 18.2077 40.9417 18.1849 40.9349C15.2575 40.025 12.2748 38.6522 9.19561 36.3908C9.18257 36.3807 9.17171 36.368 9.16368 36.3535C9.15564 36.3391 9.15058 36.3231 9.14881 36.3067C8.52151 29.5898 9.80011 22.7887 14.4672 15.8161C14.4786 15.7976 14.4954 15.7831 14.5153 15.7746C16.849 14.7024 19.3123 13.9385 21.8431 13.5021C21.8661 13.4984 21.8896 13.5018 21.9106 13.5117C21.9316 13.5216 21.9491 13.5376 21.9609 13.5576C22.2787 14.1205 22.642 14.8419 22.8874 15.4318C25.5976 15.0175 28.3506 15.0175 31.1176 15.4318C31.363 14.8548 31.7136 14.1205 32.0301 13.5576C32.0414 13.5371 32.0588 13.5207 32.0799 13.5107C32.1011 13.5007 32.1248 13.4976 32.1478 13.5019Z" fill="white"/>
</g>
<defs>
<clipPath id="clip0_11_220">
<rect width="54" height="54" fill="white"/>
</clipPath>
</defs>
</svg>
