<svg width="54" height="54" viewBox="0 0 54 54" fill="none" xmlns="http://www.w3.org/2000/svg">
<g clip-path="url(#clip0_11_224)">
<path fill-rule="evenodd" clip-rule="evenodd" d="M1.47141 7.37113C0 10.2589 0 14.0393 0 21.6V32.4C0 39.9607 0 43.7411 1.47141 46.6289C2.7657 49.1691 4.83094 51.2343 7.37113 52.5286C10.2589 54 14.0393 54 21.6 54H32.4C39.9607 54 43.7411 54 46.6289 52.5286C49.1691 51.2343 51.2343 49.1691 52.5286 46.6289C54 43.7411 54 39.9607 54 32.4V21.6C54 14.0393 54 10.2589 52.5286 7.37113C51.2343 4.83094 49.1691 2.7657 46.6289 1.47141C43.7411 0 39.9607 0 32.4 0H21.6C14.0393 0 10.2589 0 7.37113 1.47141C4.83094 2.7657 2.7657 4.83094 1.47141 7.37113ZM29.6817 16.8914C26.4574 18.2325 20.0135 21.0081 10.3498 25.2184C8.78059 25.8425 7.95856 26.4529 7.88372 27.0499C7.75725 28.0587 9.02059 28.4559 10.7409 28.9969C10.9749 29.0705 11.2174 29.1467 11.466 29.2275C13.1585 29.7777 15.4353 30.4213 16.6189 30.4469C17.6925 30.4701 18.8908 30.0275 20.2138 29.119C29.2428 23.0242 33.9036 19.9435 34.1963 19.8771C34.4027 19.8303 34.6888 19.7714 34.8826 19.9436C35.0764 20.1159 35.0574 20.4422 35.0368 20.5297C34.9117 21.0632 29.9526 25.6736 27.3863 28.0595C26.5863 28.8033 26.0188 29.3309 25.9028 29.4513C25.6429 29.7213 25.3781 29.9766 25.1235 30.222C23.5511 31.7378 22.372 32.8745 25.1888 34.7308C26.5425 35.6228 27.6257 36.3605 28.7064 37.0964C29.8865 37.9001 31.0636 38.7017 32.5866 39.7C32.9746 39.9544 33.3452 40.2186 33.7061 40.4759C35.0796 41.455 36.3135 42.3347 37.8379 42.1944C38.7237 42.1129 39.6387 41.28 40.1034 38.7959C41.2015 32.9251 43.3601 20.205 43.859 14.9633C43.9027 14.5041 43.8477 13.9164 43.8036 13.6584C43.7594 13.4004 43.6671 13.0328 43.3318 12.7606C42.9346 12.4384 42.3215 12.3704 42.0472 12.3752C40.8004 12.3972 38.8875 13.0623 29.6817 16.8914Z" fill="white"/>
</g>
<defs>
<clipPath id="clip0_11_224">
<rect width="54" height="54" fill="white"/>
</clipPath>
</defs>
</svg>
