<svg width="443" height="525" viewBox="0 0 443 525" fill="none" xmlns="http://www.w3.org/2000/svg">
<rect width="443" height="525" rx="20" fill="#D9D9D9"/>
<path d="M50.5365 157.637C48.8178 131.212 46.6694 116.96 46.0248 107.579C45.5409 100.535 46.3471 92.9159 55.8002 91.1971C64.018 90.1766 67.9388 97.4097 68.2611 100.274C68.2253 97.5171 68.2611 90.9307 68.2611 89.2098C68.2611 86.3094 68.3685 75.782 80.0775 75.782C88.346 75.782 91.3032 83.8566 91.0883 87.6522C91.2316 86.2557 91.3998 81.9695 91.5717 77.9305C91.8253 71.9725 95.0307 64.3308 104.57 64.5027C112.788 65.0398 115.473 72.9353 115.097 77.9305L113.486 103.604C113.808 101.026 114.893 94.4627 117.299 85.1814C119.706 75.9002 126.946 75.2844 130.458 75.782C134.941 76.417 142.554 80.7449 139.374 93.2918C135.593 109.19 133.019 129.654 132.123 138.463C136.581 136.636 140.955 132.79 145.897 127.633C150.838 122.477 158.089 122.37 162.171 125.431C166.844 129.459 169.345 138.731 163.813 144.263C157.454 150.107 134.54 177.331 123.154 190.938C120.003 194.949 109.447 202.969 92.431 202.969C62.138 201.68 51.9859 179.923 50.5365 157.637Z" fill="url(#paint0_radial_31_1497)"/>
<path d="M50.5365 157.637C48.8178 131.212 46.6694 116.96 46.0248 107.579C45.5409 100.535 46.3471 92.9159 55.8002 91.1971C64.018 90.1766 67.9388 97.4097 68.2611 100.274C68.2253 97.5171 68.2611 90.9307 68.2611 89.2098C68.2611 86.3094 68.3685 75.782 80.0775 75.782C88.346 75.782 91.3032 83.8566 91.0883 87.6522C91.2316 86.2557 91.3998 81.9695 91.5717 77.9305C91.8253 71.9725 95.0307 64.3308 104.57 64.5027C112.788 65.0398 115.473 72.9353 115.097 77.9305L113.486 103.604C113.808 101.026 114.893 94.4627 117.299 85.1814C119.706 75.9002 126.946 75.2844 130.458 75.782C134.941 76.417 142.554 80.7449 139.374 93.2918C135.593 109.19 133.019 129.654 132.123 138.463C136.581 136.636 140.955 132.79 145.897 127.633C150.838 122.477 158.089 122.37 162.171 125.431C166.844 129.459 169.345 138.731 163.813 144.263C157.454 150.107 134.54 177.331 123.154 190.938C120.003 194.949 109.447 202.969 92.431 202.969C62.138 201.68 51.9859 179.923 50.5365 157.637Z" fill="url(#paint1_radial_31_1497)"/>
<path d="M50.5365 157.637C48.8178 131.212 46.6694 116.96 46.0248 107.579C45.5409 100.535 46.3471 92.9159 55.8002 91.1971C64.018 90.1766 67.9388 97.4097 68.2611 100.274C68.2253 97.5171 68.2611 90.9307 68.2611 89.2098C68.2611 86.3094 68.3685 75.782 80.0775 75.782C88.346 75.782 91.3032 83.8566 91.0883 87.6522C91.2316 86.2557 91.3998 81.9695 91.5717 77.9305C91.8253 71.9725 95.0307 64.3308 104.57 64.5027C112.788 65.0398 115.473 72.9353 115.097 77.9305L113.486 103.604C113.808 101.026 114.893 94.4627 117.299 85.1814C119.706 75.9002 126.946 75.2844 130.458 75.782C134.941 76.417 142.554 80.7449 139.374 93.2918C135.593 109.19 133.019 129.654 132.123 138.463C136.581 136.636 140.955 132.79 145.897 127.633C150.838 122.477 158.089 122.37 162.171 125.431C166.844 129.459 169.345 138.731 163.813 144.263C157.454 150.107 134.54 177.331 123.154 190.938C120.003 194.949 109.447 202.969 92.431 202.969C62.138 201.68 51.9859 179.923 50.5365 157.637Z" fill="url(#paint2_linear_31_1497)"/>
<path d="M50.5365 157.637C48.8178 131.212 46.6694 116.96 46.0248 107.579C45.5409 100.535 46.3471 92.9159 55.8002 91.1971C64.018 90.1766 67.9388 97.4097 68.2611 100.274C68.2253 97.5171 68.2611 90.9307 68.2611 89.2098C68.2611 86.3094 68.3685 75.782 80.0775 75.782C88.346 75.782 91.3032 83.8566 91.0883 87.6522C91.2316 86.2557 91.3998 81.9695 91.5717 77.9305C91.8253 71.9725 95.0307 64.3308 104.57 64.5027C112.788 65.0398 115.473 72.9353 115.097 77.9305L113.486 103.604C113.808 101.026 114.893 94.4627 117.299 85.1814C119.706 75.9002 126.946 75.2844 130.458 75.782C134.941 76.417 142.554 80.7449 139.374 93.2918C135.593 109.19 133.019 129.654 132.123 138.463C136.581 136.636 140.955 132.79 145.897 127.633C150.838 122.477 158.089 122.37 162.171 125.431C166.844 129.459 169.345 138.731 163.813 144.263C157.454 150.107 134.54 177.331 123.154 190.938C120.003 194.949 109.447 202.969 92.431 202.969C62.138 201.68 51.9859 179.923 50.5365 157.637Z" fill="url(#paint3_radial_31_1497)"/>
<path d="M50.5365 157.637C48.8178 131.212 46.6694 116.96 46.0248 107.579C45.5409 100.535 46.3471 92.9159 55.8002 91.1971C64.018 90.1766 67.9388 97.4097 68.2611 100.274C68.2253 97.5171 68.2611 90.9307 68.2611 89.2098C68.2611 86.3094 68.3685 75.782 80.0775 75.782C88.346 75.782 91.3032 83.8566 91.0883 87.6522C91.2316 86.2557 91.3998 81.9695 91.5717 77.9305C91.8253 71.9725 95.0307 64.3308 104.57 64.5027C112.788 65.0398 115.473 72.9353 115.097 77.9305L113.486 103.604C113.808 101.026 114.893 94.4627 117.299 85.1814C119.706 75.9002 126.946 75.2844 130.458 75.782C134.941 76.417 142.554 80.7449 139.374 93.2918C135.593 109.19 133.019 129.654 132.123 138.463C136.581 136.636 140.955 132.79 145.897 127.633C150.838 122.477 158.089 122.37 162.171 125.431C166.844 129.459 169.345 138.731 163.813 144.263C157.454 150.107 134.54 177.331 123.154 190.938C120.003 194.949 109.447 202.969 92.431 202.969C62.138 201.68 51.9859 179.923 50.5365 157.637Z" fill="url(#paint4_radial_31_1497)"/>
<path d="M50.5365 157.637C48.8178 131.212 46.6694 116.96 46.0248 107.579C45.5409 100.535 46.3471 92.9159 55.8002 91.1971C64.018 90.1766 67.9388 97.4097 68.2611 100.274C68.2253 97.5171 68.2611 90.9307 68.2611 89.2098C68.2611 86.3094 68.3685 75.782 80.0775 75.782C88.346 75.782 91.3032 83.8566 91.0883 87.6522C91.2316 86.2557 91.3998 81.9695 91.5717 77.9305C91.8253 71.9725 95.0307 64.3308 104.57 64.5027C112.788 65.0398 115.473 72.9353 115.097 77.9305L113.486 103.604C113.808 101.026 114.893 94.4627 117.299 85.1814C119.706 75.9002 126.946 75.2844 130.458 75.782C134.941 76.417 142.554 80.7449 139.374 93.2918C135.593 109.19 133.019 129.654 132.123 138.463C136.581 136.636 140.955 132.79 145.897 127.633C150.838 122.477 158.089 122.37 162.171 125.431C166.844 129.459 169.345 138.731 163.813 144.263C157.454 150.107 134.54 177.331 123.154 190.938C120.003 194.949 109.447 202.969 92.431 202.969C62.138 201.68 51.9859 179.923 50.5365 157.637Z" fill="url(#paint5_radial_31_1497)"/>
<path d="M50.5365 157.637C48.8178 131.212 46.6694 116.96 46.0248 107.579C45.5409 100.535 46.3471 92.9159 55.8002 91.1971C64.018 90.1766 67.9388 97.4097 68.2611 100.274C68.2253 97.5171 68.2611 90.9307 68.2611 89.2098C68.2611 86.3094 68.3685 75.782 80.0775 75.782C88.346 75.782 91.3032 83.8566 91.0883 87.6522C91.2316 86.2557 91.3998 81.9695 91.5717 77.9305C91.8253 71.9725 95.0307 64.3308 104.57 64.5027C112.788 65.0398 115.473 72.9353 115.097 77.9305L113.486 103.604C113.808 101.026 114.893 94.4627 117.299 85.1814C119.706 75.9002 126.946 75.2844 130.458 75.782C134.941 76.417 142.554 80.7449 139.374 93.2918C135.593 109.19 133.019 129.654 132.123 138.463C136.581 136.636 140.955 132.79 145.897 127.633C150.838 122.477 158.089 122.37 162.171 125.431C166.844 129.459 169.345 138.731 163.813 144.263C157.454 150.107 134.54 177.331 123.154 190.938C120.003 194.949 109.447 202.969 92.431 202.969C62.138 201.68 51.9859 179.923 50.5365 157.637Z" fill="url(#paint6_radial_31_1497)"/>
<path d="M50.5365 157.637C48.8178 131.212 46.6694 116.96 46.0248 107.579C45.5409 100.535 46.3471 92.9159 55.8002 91.1971C64.018 90.1766 67.9388 97.4097 68.2611 100.274C68.2253 97.5171 68.2611 90.9307 68.2611 89.2098C68.2611 86.3094 68.3685 75.782 80.0775 75.782C88.346 75.782 91.3032 83.8566 91.0883 87.6522C91.2316 86.2557 91.3998 81.9695 91.5717 77.9305C91.8253 71.9725 95.0307 64.3308 104.57 64.5027C112.788 65.0398 115.473 72.9353 115.097 77.9305L113.486 103.604C113.808 101.026 114.893 94.4627 117.299 85.1814C119.706 75.9002 126.946 75.2844 130.458 75.782C134.941 76.417 142.554 80.7449 139.374 93.2918C135.593 109.19 133.019 129.654 132.123 138.463C136.581 136.636 140.955 132.79 145.897 127.633C150.838 122.477 158.089 122.37 162.171 125.431C166.844 129.459 169.345 138.731 163.813 144.263C157.454 150.107 134.54 177.331 123.154 190.938C120.003 194.949 109.447 202.969 92.431 202.969C62.138 201.68 51.9859 179.923 50.5365 157.637Z" fill="url(#paint7_radial_31_1497)"/>
<path d="M50.5365 157.637C48.8178 131.212 46.6694 116.96 46.0248 107.579C45.5409 100.535 46.3471 92.9159 55.8002 91.1971C64.018 90.1766 67.9388 97.4097 68.2611 100.274C68.2253 97.5171 68.2611 90.9307 68.2611 89.2098C68.2611 86.3094 68.3685 75.782 80.0775 75.782C88.346 75.782 91.3032 83.8566 91.0883 87.6522C91.2316 86.2557 91.3998 81.9695 91.5717 77.9305C91.8253 71.9725 95.0307 64.3308 104.57 64.5027C112.788 65.0398 115.473 72.9353 115.097 77.9305L113.486 103.604C113.808 101.026 114.893 94.4627 117.299 85.1814C119.706 75.9002 126.946 75.2844 130.458 75.782C134.941 76.417 142.554 80.7449 139.374 93.2918C135.593 109.19 133.019 129.654 132.123 138.463C136.581 136.636 140.955 132.79 145.897 127.633C150.838 122.477 158.089 122.37 162.171 125.431C166.844 129.459 169.345 138.731 163.813 144.263C157.454 150.107 134.54 177.331 123.154 190.938C120.003 194.949 109.447 202.969 92.431 202.969C62.138 201.68 51.9859 179.923 50.5365 157.637Z" fill="url(#paint8_radial_31_1497)"/>
<path d="M50.5365 157.637C48.8178 131.212 46.6694 116.96 46.0248 107.579C45.5409 100.535 46.3471 92.9159 55.8002 91.1971C64.018 90.1766 67.9388 97.4097 68.2611 100.274C68.2253 97.5171 68.2611 90.9307 68.2611 89.2098C68.2611 86.3094 68.3685 75.782 80.0775 75.782C88.346 75.782 91.3032 83.8566 91.0883 87.6522C91.2316 86.2557 91.3998 81.9695 91.5717 77.9305C91.8253 71.9725 95.0307 64.3308 104.57 64.5027C112.788 65.0398 115.473 72.9353 115.097 77.9305L113.486 103.604C113.808 101.026 114.893 94.4627 117.299 85.1814C119.706 75.9002 126.946 75.2844 130.458 75.782C134.941 76.417 142.554 80.7449 139.374 93.2918C135.593 109.19 133.019 129.654 132.123 138.463C136.581 136.636 140.955 132.79 145.897 127.633C150.838 122.477 158.089 122.37 162.171 125.431C166.844 129.459 169.345 138.731 163.813 144.263C157.454 150.107 134.54 177.331 123.154 190.938C120.003 194.949 109.447 202.969 92.431 202.969C62.138 201.68 51.9859 179.923 50.5365 157.637Z" fill="url(#paint9_radial_31_1497)"/>
<path d="M50.5365 157.637C48.8178 131.212 46.6694 116.96 46.0248 107.579C45.5409 100.535 46.3471 92.9159 55.8002 91.1971C64.018 90.1766 67.9388 97.4097 68.2611 100.274C68.2253 97.5171 68.2611 90.9307 68.2611 89.2098C68.2611 86.3094 68.3685 75.782 80.0775 75.782C88.346 75.782 91.3032 83.8566 91.0883 87.6522C91.2316 86.2557 91.3998 81.9695 91.5717 77.9305C91.8253 71.9725 95.0307 64.3308 104.57 64.5027C112.788 65.0398 115.473 72.9353 115.097 77.9305L113.486 103.604C113.808 101.026 114.893 94.4627 117.299 85.1814C119.706 75.9002 126.946 75.2844 130.458 75.782C134.941 76.417 142.554 80.7449 139.374 93.2918C135.593 109.19 133.019 129.654 132.123 138.463C136.581 136.636 140.955 132.79 145.897 127.633C150.838 122.477 158.089 122.37 162.171 125.431C166.844 129.459 169.345 138.731 163.813 144.263C157.454 150.107 134.54 177.331 123.154 190.938C120.003 194.949 109.447 202.969 92.431 202.969C62.138 201.68 51.9859 179.923 50.5365 157.637Z" fill="url(#paint10_radial_31_1497)"/>
<path d="M50.5365 157.637C48.8178 131.212 46.6694 116.96 46.0248 107.579C45.5409 100.535 46.3471 92.9159 55.8002 91.1971C64.018 90.1766 67.9388 97.4097 68.2611 100.274C68.2253 97.5171 68.2611 90.9307 68.2611 89.2098C68.2611 86.3094 68.3685 75.782 80.0775 75.782C88.346 75.782 91.3032 83.8566 91.0883 87.6522C91.2316 86.2557 91.3998 81.9695 91.5717 77.9305C91.8253 71.9725 95.0307 64.3308 104.57 64.5027C112.788 65.0398 115.473 72.9353 115.097 77.9305L113.486 103.604C113.808 101.026 114.893 94.4627 117.299 85.1814C119.706 75.9002 126.946 75.2844 130.458 75.782C134.941 76.417 142.554 80.7449 139.374 93.2918C135.593 109.19 133.019 129.654 132.123 138.463C136.581 136.636 140.955 132.79 145.897 127.633C150.838 122.477 158.089 122.37 162.171 125.431C166.844 129.459 169.345 138.731 163.813 144.263C157.454 150.107 134.54 177.331 123.154 190.938C120.003 194.949 109.447 202.969 92.431 202.969C62.138 201.68 51.9859 179.923 50.5365 157.637Z" fill="url(#paint11_linear_31_1497)"/>
<g filter="url(#filter0_f_31_1497)">
<path d="M68.3669 102.458L70.408 129.206" stroke="url(#paint12_linear_31_1497)" stroke-width="0.075" stroke-linecap="round"/>
</g>
<g filter="url(#filter1_f_31_1497)">
<path d="M90.7107 96.5502L89.7439 128.132" stroke="url(#paint13_linear_31_1497)" stroke-width="0.075" stroke-linecap="round"/>
</g>
<g filter="url(#filter2_f_31_1497)">
<path d="M113.269 104.822L110.047 124.158" stroke="url(#paint14_linear_31_1497)" stroke-width="0.075" stroke-linecap="round"/>
</g>
<g filter="url(#filter3_f_31_1497)">
<path d="M59.1001 97.5002L64.0415 133.701" stroke="url(#paint15_linear_31_1497)" stroke-width="0.4"/>
</g>
<g filter="url(#filter4_f_31_1497)">
<path d="M82.3032 84.3595V126.828" stroke="url(#paint16_linear_31_1497)" stroke-width="0.4"/>
</g>
<g filter="url(#filter5_f_31_1497)">
<path d="M107.547 71.8281L103.573 126.058" stroke="url(#paint17_linear_31_1497)" stroke-width="0.4"/>
</g>
<g filter="url(#filter6_f_31_1497)">
<path d="M133.973 86.2209L122.801 133.057" stroke="url(#paint18_linear_31_1497)" stroke-width="0.4"/>
</g>
<g filter="url(#filter7_f_31_1497)">
<path d="M58.9927 140.791C60.4966 139.932 67.479 135.581 70.1646 130.371" stroke="url(#paint19_linear_31_1497)" stroke-width="0.2" stroke-linecap="round"/>
</g>
<g filter="url(#filter8_f_31_1497)">
<path d="M88.7908 127.515C86.9962 129.779 84.2174 131.637 81.6642 133.006" stroke="url(#paint20_linear_31_1497)" stroke-width="0.2" stroke-linecap="round"/>
</g>
<g filter="url(#filter9_f_31_1497)">
<path d="M108.852 124.879C107.058 127.143 101.961 129.832 99.0607 130.692" stroke="url(#paint21_linear_31_1497)" stroke-width="0.2" stroke-linecap="round"/>
</g>
<path d="M65.3054 197.878C65.3054 197.767 65.395 197.678 65.5054 197.678H123.006C123.116 197.678 123.206 197.767 123.206 197.878V223.996H65.3054V197.878Z" fill="url(#paint22_linear_31_1497)"/>
<path d="M65.3054 197.878C65.3054 197.767 65.395 197.678 65.5054 197.678H123.006C123.116 197.678 123.206 197.767 123.206 197.878V223.996H65.3054V197.878Z" fill="url(#paint23_radial_31_1497)"/>
<path d="M65.3054 197.878C65.3054 197.767 65.395 197.678 65.5054 197.678H123.006C123.116 197.678 123.206 197.767 123.206 197.878V223.996H65.3054V197.878Z" fill="url(#paint24_linear_31_1497)"/>
<path d="M280.011 321.75H293.342C327.589 321.75 396.082 369.875 396.082 445.5H149.506V397.375C149.506 393.571 147.176 390.049 143.811 388.78L101.56 369.875C67.3136 356.125 53.6149 321.75 53.6149 298.403V225.699C53.6149 217.95 59.4391 211.75 66.4283 211.75L122.994 211.75C130.112 211.75 135.807 218.091 135.807 225.699V280.5C135.807 298.403 149.506 301.125 149.506 301.125L231.698 321.75H280.011Z" fill="url(#paint25_linear_31_1497)"/>
<path d="M280.011 321.75H293.342C327.589 321.75 396.082 369.875 396.082 445.5H149.506V397.375C149.506 393.571 147.176 390.049 143.811 388.78L101.56 369.875C67.3136 356.125 53.6149 321.75 53.6149 298.403V225.699C53.6149 217.95 59.4391 211.75 66.4283 211.75L122.994 211.75C130.112 211.75 135.807 218.091 135.807 225.699V280.5C135.807 298.403 149.506 301.125 149.506 301.125L231.698 321.75H280.011Z" fill="url(#paint26_radial_31_1497)"/>
<path d="M280.011 321.75H293.342C327.589 321.75 396.082 369.875 396.082 445.5H149.506V397.375C149.506 393.571 147.176 390.049 143.811 388.78L101.56 369.875C67.3136 356.125 53.6149 321.75 53.6149 298.403V225.699C53.6149 217.95 59.4391 211.75 66.4283 211.75L122.994 211.75C130.112 211.75 135.807 218.091 135.807 225.699V280.5C135.807 298.403 149.506 301.125 149.506 301.125L231.698 321.75H280.011Z" fill="url(#paint27_radial_31_1497)"/>
<path d="M257.913 323.254L149.649 395.377C148.997 392.386 146.924 389.822 144.149 388.78L101.74 369.875C67.3649 356.125 53.6149 321.75 53.6149 298.403V225.699C53.6149 217.95 59.461 211.75 66.4763 211.75L123.253 211.75C130.399 211.75 136.115 218.091 136.115 225.699V280.5C136.115 298.403 149.865 301.125 149.865 301.125L232.365 321.75L257.913 323.254Z" fill="url(#paint28_linear_31_1497)"/>
<path d="M257.913 323.254L149.649 395.377C148.997 392.386 146.924 389.822 144.149 388.78L101.74 369.875C67.3649 356.125 53.6149 321.75 53.6149 298.403V225.699C53.6149 217.95 59.461 211.75 66.4763 211.75L123.253 211.75C130.399 211.75 136.115 218.091 136.115 225.699V280.5C136.115 298.403 149.865 301.125 149.865 301.125L232.365 321.75L257.913 323.254Z" fill="url(#paint29_radial_31_1497)"/>
<path d="M257.913 323.254L149.649 395.377C148.997 392.386 146.924 389.822 144.149 388.78L101.74 369.875C67.3649 356.125 53.6149 321.75 53.6149 298.403V225.699C53.6149 217.95 59.461 211.75 66.4763 211.75L123.253 211.75C130.399 211.75 136.115 218.091 136.115 225.699V280.5C136.115 298.403 149.865 301.125 149.865 301.125L232.365 321.75L257.913 323.254Z" fill="url(#paint30_radial_31_1497)"/>
<path d="M257.913 323.254L149.649 395.377C148.997 392.386 146.924 389.822 144.149 388.78L101.74 369.875C67.3649 356.125 53.6149 321.75 53.6149 298.403V225.699C53.6149 217.95 59.461 211.75 66.4763 211.75L123.253 211.75C130.399 211.75 136.115 218.091 136.115 225.699V280.5C136.115 298.403 149.865 301.125 149.865 301.125L232.365 321.75L257.913 323.254Z" fill="url(#paint31_radial_31_1497)"/>
<path d="M257.913 323.254L149.649 395.377C148.997 392.386 146.924 389.822 144.149 388.78L101.74 369.875C67.3649 356.125 53.6149 321.75 53.6149 298.403V225.699C53.6149 217.95 59.461 211.75 66.4763 211.75L123.253 211.75C130.399 211.75 136.115 218.091 136.115 225.699V280.5C136.115 298.403 149.865 301.125 149.865 301.125L232.365 321.75L257.913 323.254Z" fill="url(#paint32_linear_31_1497)"/>
<path d="M257.913 323.254L149.649 395.377C148.997 392.386 146.924 389.822 144.149 388.78L101.74 369.875C67.3649 356.125 53.6149 321.75 53.6149 298.403V225.699C53.6149 217.95 59.461 211.75 66.4763 211.75L123.253 211.75C130.399 211.75 136.115 218.091 136.115 225.699V280.5C136.115 298.403 149.865 301.125 149.865 301.125L232.365 321.75L257.913 323.254Z" fill="url(#paint33_linear_31_1497)"/>
<path d="M266.741 364.454C249.309 364.454 235.168 350.904 235.168 334.2V298.457C235.168 281.753 249.309 268.204 266.741 268.204C284.173 268.204 298.313 281.753 298.313 298.457V334.2C298.313 350.904 284.173 364.454 266.741 364.454Z" fill="url(#paint34_radial_31_1497)"/>
<path d="M266.741 364.454C249.309 364.454 235.168 350.904 235.168 334.2V298.457C235.168 281.753 249.309 268.204 266.741 268.204C284.173 268.204 298.313 281.753 298.313 298.457V334.2C298.313 350.904 284.173 364.454 266.741 364.454Z" fill="url(#paint35_radial_31_1497)"/>
<g filter="url(#filter10_f_31_1497)">
<path d="M106.448 224.508L106.445 314.128C106.445 314.994 107.002 315.761 107.825 316.03L182.929 340.502" stroke="url(#paint36_linear_31_1497)"/>
</g>
<g filter="url(#filter11_i_31_1497)">
<circle cx="189.075" cy="230.228" r="27.2582" fill="url(#paint37_radial_31_1497)"/>
</g>
<g filter="url(#filter12_f_31_1497)">
<circle cx="189.077" cy="230.228" r="16.2455" fill="url(#paint38_linear_31_1497)"/>
</g>
<g filter="url(#filter13_i_31_1497)">
<circle cx="344.406" cy="230.228" r="27.2582" fill="url(#paint39_linear_31_1497)"/>
<circle cx="344.406" cy="230.228" r="27.2582" fill="url(#paint40_radial_31_1497)"/>
</g>
<g filter="url(#filter14_f_31_1497)">
<circle cx="344.406" cy="230.228" r="16.2455" fill="#E4AF9A"/>
<circle cx="344.406" cy="230.228" r="16.2455" fill="url(#paint41_radial_31_1497)"/>
<circle cx="344.406" cy="230.228" r="16.2455" fill="url(#paint42_radial_31_1497)"/>
</g>
<g filter="url(#filter15_i_31_1497)">
<path d="M182.38 196.739C182.38 192.385 184.132 187.16 187.635 184.548L190.262 181.935C194.641 178.452 196.393 173.227 196.393 168.002V154.069C196.393 149.715 199.02 146.232 203.399 145.361C213.909 142.748 235.804 138.394 267.333 138.394C298.862 138.394 320.757 142.748 331.266 145.361C334.77 146.232 338.273 149.715 338.273 154.069V168.002C338.273 173.227 340.9 178.452 344.403 181.935C352.601 187.68 352.091 190.839 351.41 197.61C350.534 206.318 349.658 221.122 349.658 221.122C349.757 221.122 349.856 221.121 349.954 221.118L345.613 285.75C342.992 314.643 320.278 334.781 293.195 334.781H240.778C212.822 334.781 190.981 314.643 188.36 285.75C186.084 256.092 185.087 226.346 182.38 196.739Z" fill="url(#paint43_linear_31_1497)"/>
<path d="M182.38 196.739C182.38 192.385 184.132 187.16 187.635 184.548L190.262 181.935C194.641 178.452 196.393 173.227 196.393 168.002V154.069C196.393 149.715 199.02 146.232 203.399 145.361C213.909 142.748 235.804 138.394 267.333 138.394C298.862 138.394 320.757 142.748 331.266 145.361C334.77 146.232 338.273 149.715 338.273 154.069V168.002C338.273 173.227 340.9 178.452 344.403 181.935C352.601 187.68 352.091 190.839 351.41 197.61C350.534 206.318 349.658 221.122 349.658 221.122C349.757 221.122 349.856 221.121 349.954 221.118L345.613 285.75C342.992 314.643 320.278 334.781 293.195 334.781H240.778C212.822 334.781 190.981 314.643 188.36 285.75C186.084 256.092 185.087 226.346 182.38 196.739Z" fill="url(#paint44_radial_31_1497)"/>
<path d="M182.38 196.739C182.38 192.385 184.132 187.16 187.635 184.548L190.262 181.935C194.641 178.452 196.393 173.227 196.393 168.002V154.069C196.393 149.715 199.02 146.232 203.399 145.361C213.909 142.748 235.804 138.394 267.333 138.394C298.862 138.394 320.757 142.748 331.266 145.361C334.77 146.232 338.273 149.715 338.273 154.069V168.002C338.273 173.227 340.9 178.452 344.403 181.935C352.601 187.68 352.091 190.839 351.41 197.61C350.534 206.318 349.658 221.122 349.658 221.122C349.757 221.122 349.856 221.121 349.954 221.118L345.613 285.75C342.992 314.643 320.278 334.781 293.195 334.781H240.778C212.822 334.781 190.981 314.643 188.36 285.75C186.084 256.092 185.087 226.346 182.38 196.739Z" fill="url(#paint45_linear_31_1497)"/>
<path d="M182.38 196.739C182.38 192.385 184.132 187.16 187.635 184.548L190.262 181.935C194.641 178.452 196.393 173.227 196.393 168.002V154.069C196.393 149.715 199.02 146.232 203.399 145.361C213.909 142.748 235.804 138.394 267.333 138.394C298.862 138.394 320.757 142.748 331.266 145.361C334.77 146.232 338.273 149.715 338.273 154.069V168.002C338.273 173.227 340.9 178.452 344.403 181.935C352.601 187.68 352.091 190.839 351.41 197.61C350.534 206.318 349.658 221.122 349.658 221.122C349.757 221.122 349.856 221.121 349.954 221.118L345.613 285.75C342.992 314.643 320.278 334.781 293.195 334.781H240.778C212.822 334.781 190.981 314.643 188.36 285.75C186.084 256.092 185.087 226.346 182.38 196.739Z" fill="url(#paint46_linear_31_1497)"/>
<path d="M182.38 196.739C182.38 192.385 184.132 187.16 187.635 184.548L190.262 181.935C194.641 178.452 196.393 173.227 196.393 168.002V154.069C196.393 149.715 199.02 146.232 203.399 145.361C213.909 142.748 235.804 138.394 267.333 138.394C298.862 138.394 320.757 142.748 331.266 145.361C334.77 146.232 338.273 149.715 338.273 154.069V168.002C338.273 173.227 340.9 178.452 344.403 181.935C352.601 187.68 352.091 190.839 351.41 197.61C350.534 206.318 349.658 221.122 349.658 221.122C349.757 221.122 349.856 221.121 349.954 221.118L345.613 285.75C342.992 314.643 320.278 334.781 293.195 334.781H240.778C212.822 334.781 190.981 314.643 188.36 285.75C186.084 256.092 185.087 226.346 182.38 196.739Z" fill="url(#paint47_radial_31_1497)"/>
<path d="M182.38 196.739C182.38 192.385 184.132 187.16 187.635 184.548L190.262 181.935C194.641 178.452 196.393 173.227 196.393 168.002V154.069C196.393 149.715 199.02 146.232 203.399 145.361C213.909 142.748 235.804 138.394 267.333 138.394C298.862 138.394 320.757 142.748 331.266 145.361C334.77 146.232 338.273 149.715 338.273 154.069V168.002C338.273 173.227 340.9 178.452 344.403 181.935C352.601 187.68 352.091 190.839 351.41 197.61C350.534 206.318 349.658 221.122 349.658 221.122C349.757 221.122 349.856 221.121 349.954 221.118L345.613 285.75C342.992 314.643 320.278 334.781 293.195 334.781H240.778C212.822 334.781 190.981 314.643 188.36 285.75C186.084 256.092 185.087 226.346 182.38 196.739Z" fill="url(#paint48_radial_31_1497)"/>
</g>
<g filter="url(#filter16_f_31_1497)">
<path d="M266.569 162.94L273.112 187.756C273.497 189.218 274.911 190.165 276.411 189.964L338.7 181.624L331.313 138.394L268.521 159.329C267.02 159.829 266.166 161.41 266.569 162.94Z" fill="url(#paint49_linear_31_1497)"/>
</g>
<g filter="url(#filter17_i_31_1497)">
<path d="M345.278 124.462L352.284 127.946C364.546 134.041 371.552 147.974 368.925 162.778L359.291 212.415C358.432 217.541 355.043 220.991 349.953 221.119C349.855 221.122 349.756 221.122 349.657 221.122C349.657 221.122 350.533 206.318 351.409 197.61C352.12 190.539 350.885 188.382 344.402 181.936C340.899 178.452 338.272 173.228 338.272 168.003V154.07C338.272 149.716 334.768 146.232 331.265 145.361C320.756 142.749 298.861 138.395 267.332 138.395C235.803 138.395 213.908 142.749 203.398 145.361C199.019 146.232 196.392 149.716 196.392 154.07V168.003C196.392 173.228 194.64 178.452 190.261 181.936L187.634 184.548C184.13 187.161 182.379 192.385 182.379 196.74C183.255 206.318 184.13 220.251 184.13 220.251C183.861 220.251 183.594 220.242 183.329 220.224C178.436 219.89 174.452 216.501 173.621 211.544L163.987 161.907C162.235 147.974 169.242 134.041 181.503 127.946L188.509 124.462C192.888 121.85 197.267 118.367 201.646 114.884L217.411 98.338C227.045 89.6299 241.058 87.0174 253.319 93.1131C262.077 95.7256 271.711 95.7256 280.469 93.1131C293.606 88.7591 308.494 92.2423 319.004 101.821L332.141 114.883C335.644 119.238 340.023 121.85 345.278 124.462Z" fill="#242324"/>
<path d="M345.278 124.462L352.284 127.946C364.546 134.041 371.552 147.974 368.925 162.778L359.291 212.415C358.432 217.541 355.043 220.991 349.953 221.119C349.855 221.122 349.756 221.122 349.657 221.122C349.657 221.122 350.533 206.318 351.409 197.61C352.12 190.539 350.885 188.382 344.402 181.936C340.899 178.452 338.272 173.228 338.272 168.003V154.07C338.272 149.716 334.768 146.232 331.265 145.361C320.756 142.749 298.861 138.395 267.332 138.395C235.803 138.395 213.908 142.749 203.398 145.361C199.019 146.232 196.392 149.716 196.392 154.07V168.003C196.392 173.228 194.64 178.452 190.261 181.936L187.634 184.548C184.13 187.161 182.379 192.385 182.379 196.74C183.255 206.318 184.13 220.251 184.13 220.251C183.861 220.251 183.594 220.242 183.329 220.224C178.436 219.89 174.452 216.501 173.621 211.544L163.987 161.907C162.235 147.974 169.242 134.041 181.503 127.946L188.509 124.462C192.888 121.85 197.267 118.367 201.646 114.884L217.411 98.338C227.045 89.6299 241.058 87.0174 253.319 93.1131C262.077 95.7256 271.711 95.7256 280.469 93.1131C293.606 88.7591 308.494 92.2423 319.004 101.821L332.141 114.883C335.644 119.238 340.023 121.85 345.278 124.462Z" fill="url(#paint50_radial_31_1497)"/>
<path d="M345.278 124.462L352.284 127.946C364.546 134.041 371.552 147.974 368.925 162.778L359.291 212.415C358.432 217.541 355.043 220.991 349.953 221.119C349.855 221.122 349.756 221.122 349.657 221.122C349.657 221.122 350.533 206.318 351.409 197.61C352.12 190.539 350.885 188.382 344.402 181.936C340.899 178.452 338.272 173.228 338.272 168.003V154.07C338.272 149.716 334.768 146.232 331.265 145.361C320.756 142.749 298.861 138.395 267.332 138.395C235.803 138.395 213.908 142.749 203.398 145.361C199.019 146.232 196.392 149.716 196.392 154.07V168.003C196.392 173.228 194.64 178.452 190.261 181.936L187.634 184.548C184.13 187.161 182.379 192.385 182.379 196.74C183.255 206.318 184.13 220.251 184.13 220.251C183.861 220.251 183.594 220.242 183.329 220.224C178.436 219.89 174.452 216.501 173.621 211.544L163.987 161.907C162.235 147.974 169.242 134.041 181.503 127.946L188.509 124.462C192.888 121.85 197.267 118.367 201.646 114.884L217.411 98.338C227.045 89.6299 241.058 87.0174 253.319 93.1131C262.077 95.7256 271.711 95.7256 280.469 93.1131C293.606 88.7591 308.494 92.2423 319.004 101.821L332.141 114.883C335.644 119.238 340.023 121.85 345.278 124.462Z" fill="url(#paint51_radial_31_1497)"/>
<path d="M345.278 124.462L352.284 127.946C364.546 134.041 371.552 147.974 368.925 162.778L359.291 212.415C358.432 217.541 355.043 220.991 349.953 221.119C349.855 221.122 349.756 221.122 349.657 221.122C349.657 221.122 350.533 206.318 351.409 197.61C352.12 190.539 350.885 188.382 344.402 181.936C340.899 178.452 338.272 173.228 338.272 168.003V154.07C338.272 149.716 334.768 146.232 331.265 145.361C320.756 142.749 298.861 138.395 267.332 138.395C235.803 138.395 213.908 142.749 203.398 145.361C199.019 146.232 196.392 149.716 196.392 154.07V168.003C196.392 173.228 194.64 178.452 190.261 181.936L187.634 184.548C184.13 187.161 182.379 192.385 182.379 196.74C183.255 206.318 184.13 220.251 184.13 220.251C183.861 220.251 183.594 220.242 183.329 220.224C178.436 219.89 174.452 216.501 173.621 211.544L163.987 161.907C162.235 147.974 169.242 134.041 181.503 127.946L188.509 124.462C192.888 121.85 197.267 118.367 201.646 114.884L217.411 98.338C227.045 89.6299 241.058 87.0174 253.319 93.1131C262.077 95.7256 271.711 95.7256 280.469 93.1131C293.606 88.7591 308.494 92.2423 319.004 101.821L332.141 114.883C335.644 119.238 340.023 121.85 345.278 124.462Z" fill="url(#paint52_radial_31_1497)"/>
<path d="M345.278 124.462L352.284 127.946C364.546 134.041 371.552 147.974 368.925 162.778L359.291 212.415C358.432 217.541 355.043 220.991 349.953 221.119C349.855 221.122 349.756 221.122 349.657 221.122C349.657 221.122 350.533 206.318 351.409 197.61C352.12 190.539 350.885 188.382 344.402 181.936C340.899 178.452 338.272 173.228 338.272 168.003V154.07C338.272 149.716 334.768 146.232 331.265 145.361C320.756 142.749 298.861 138.395 267.332 138.395C235.803 138.395 213.908 142.749 203.398 145.361C199.019 146.232 196.392 149.716 196.392 154.07V168.003C196.392 173.228 194.64 178.452 190.261 181.936L187.634 184.548C184.13 187.161 182.379 192.385 182.379 196.74C183.255 206.318 184.13 220.251 184.13 220.251C183.861 220.251 183.594 220.242 183.329 220.224C178.436 219.89 174.452 216.501 173.621 211.544L163.987 161.907C162.235 147.974 169.242 134.041 181.503 127.946L188.509 124.462C192.888 121.85 197.267 118.367 201.646 114.884L217.411 98.338C227.045 89.6299 241.058 87.0174 253.319 93.1131C262.077 95.7256 271.711 95.7256 280.469 93.1131C293.606 88.7591 308.494 92.2423 319.004 101.821L332.141 114.883C335.644 119.238 340.023 121.85 345.278 124.462Z" fill="url(#paint53_radial_31_1497)"/>
</g>
<g filter="url(#filter18_f_31_1497)">
<path d="M262.101 228.232L248.707 255.983C247.047 261.691 251.032 267.399 256.677 267.399H268.714C274.359 267.399 278.343 261.603 276.683 255.983L268.548 228.232C266.804 222.085 263.928 222.085 262.101 228.232Z" fill="#D89992"/>
</g>
<g filter="url(#filter19_f_31_1497)">
<path d="M260.357 225.57L251.681 253.321C249.911 259.029 254.16 264.737 260.18 264.737H273.016C279.036 264.737 283.286 258.941 281.515 253.321L272.839 225.57C270.98 219.423 262.305 219.423 260.357 225.57Z" fill="#FBC4B1"/>
<path d="M260.357 225.57L251.681 253.321C249.911 259.029 254.16 264.737 260.18 264.737H273.016C279.036 264.737 283.286 258.941 281.515 253.321L272.839 225.57C270.98 219.423 262.305 219.423 260.357 225.57Z" fill="url(#paint54_linear_31_1497)"/>
<path d="M260.357 225.57L251.681 253.321C249.911 259.029 254.16 264.737 260.18 264.737H273.016C279.036 264.737 283.286 258.941 281.515 253.321L272.839 225.57C270.98 219.423 262.305 219.423 260.357 225.57Z" fill="url(#paint55_linear_31_1497)"/>
<path d="M260.357 225.57L251.681 253.321C249.911 259.029 254.16 264.737 260.18 264.737H273.016C279.036 264.737 283.286 258.941 281.515 253.321L272.839 225.57C270.98 219.423 262.305 219.423 260.357 225.57Z" fill="url(#paint56_linear_31_1497)"/>
<path d="M260.357 225.57L251.681 253.321C249.911 259.029 254.16 264.737 260.18 264.737H273.016C279.036 264.737 283.286 258.941 281.515 253.321L272.839 225.57C270.98 219.423 262.305 219.423 260.357 225.57Z" fill="url(#paint57_radial_31_1497)"/>
</g>
<path d="M260.357 225.57L251.681 253.321C249.911 259.029 254.16 264.737 260.18 264.737H273.016C279.036 264.737 283.286 258.941 281.515 253.321L272.839 225.57C270.98 219.423 262.305 219.423 260.357 225.57Z" fill="url(#paint58_linear_31_1497)"/>
<path d="M244.005 275.926L244.005 275.926L244.004 275.926C242.864 275.346 241.681 275.699 240.963 276.454C240.246 277.21 239.99 278.373 240.709 279.411C246.186 287.71 255.728 293.242 266.597 293.242C277.467 293.242 287.009 287.709 292.485 279.41C293.204 278.332 292.95 277.169 292.231 276.424C291.513 275.678 290.33 275.347 289.19 275.926L289.19 275.926C282.653 279.334 274.956 281.282 266.597 281.282C258.321 281.282 250.542 279.334 244.005 275.926Z" fill="#88024E" stroke="url(#paint59_linear_31_1497)" stroke-width="0.1"/>
<g filter="url(#filter20_i_31_1497)">
<path d="M327.329 185.817L327.309 185.801L327.278 185.776L327.205 185.716L327.009 185.56C326.857 185.441 326.661 185.291 326.422 185.116C325.946 184.767 325.296 184.315 324.481 183.805C322.855 182.787 320.547 181.518 317.628 180.364C311.766 178.046 303.396 176.18 293.256 177.781C288.502 178.531 285.257 182.993 286.007 187.747C286.758 192.501 291.22 195.746 295.974 194.995C302.469 193.97 307.67 195.167 311.22 196.571C313.007 197.277 314.365 198.033 315.229 198.574C315.659 198.844 315.96 199.056 316.123 199.175C316.191 199.225 316.234 199.258 316.252 199.272C319.948 202.285 325.39 201.768 328.451 198.095C331.532 194.398 331.026 188.898 327.329 185.817Z" fill="#1E1E1E"/>
</g>
<g filter="url(#filter21_i_31_1497)">
<path d="M204.984 185.823L204.997 185.812L205.011 185.801L205.041 185.776L205.114 185.716L205.31 185.56C205.462 185.441 205.658 185.291 205.897 185.116C206.374 184.767 207.024 184.315 207.839 183.805C209.464 182.787 211.772 181.518 214.692 180.364C220.553 178.046 228.923 176.18 239.064 177.781C243.817 178.531 247.062 182.993 246.312 187.747C245.561 192.501 241.099 195.746 236.346 194.995C229.851 193.97 224.65 195.167 221.099 196.571C219.313 197.277 217.954 198.033 217.09 198.574C216.66 198.844 216.359 199.056 216.197 199.175C216.129 199.224 216.086 199.258 216.067 199.272C212.371 202.285 206.929 201.768 203.869 198.095C200.788 194.398 201.287 188.903 204.984 185.823Z" fill="#1E1E1E"/>
</g>
<path d="M305.584 206.869C316.245 206.869 325.251 214.219 327.701 224.152C328.429 227 326.244 229.715 323.33 229.715H286.91C284.592 229.715 282.738 227.596 283.202 225.278C285.254 214.815 294.459 206.869 305.584 206.869Z" fill="white"/>
<path d="M302.207 211.305C310.286 211.305 316.776 217.861 316.776 225.873C316.776 227.198 316.577 228.522 316.246 229.714H288.103C287.772 228.456 287.573 227.198 287.573 225.873C287.573 217.861 294.129 211.305 302.207 211.305Z" fill="url(#paint60_radial_31_1497)"/>
<path d="M293.864 225.874C293.864 221.239 297.572 217.531 302.207 217.531C306.843 217.531 310.551 221.239 310.551 225.874C310.551 227.265 310.22 228.589 309.624 229.715H294.857C294.195 228.589 293.864 227.265 293.864 225.874Z" fill="black"/>
<g filter="url(#filter22_f_31_1497)">
<path d="M301.136 214.386C302.174 215.774 300.005 217.466 297.538 219.311C295.071 221.155 293.241 222.453 292.203 221.065C291.165 219.677 292.324 217.056 294.791 215.212C297.257 213.368 300.098 212.998 301.136 214.386Z" fill="#C7A7A3"/>
<path d="M301.136 214.386C302.174 215.774 300.005 217.466 297.538 219.311C295.071 221.155 293.241 222.453 292.203 221.065C291.165 219.677 292.324 217.056 294.791 215.212C297.257 213.368 300.098 212.998 301.136 214.386Z" fill="url(#paint61_radial_31_1497)"/>
</g>
<g filter="url(#filter23_f_31_1497)">
<path d="M315.183 223.956C314.645 220.19 312.441 217.351 311.406 216.403L307.164 221.059L309.078 224.784L315.183 223.956Z" fill="url(#paint62_linear_31_1497)"/>
</g>
<path d="M227.526 206.867C216.864 206.867 207.857 214.218 205.407 224.151C204.679 226.999 206.864 229.714 209.778 229.714H246.2C248.518 229.714 250.372 227.595 249.909 225.277C247.856 214.814 238.585 206.867 227.526 206.867Z" fill="white"/>
<path d="M230.903 211.305C222.824 211.305 216.334 217.861 216.334 225.874C216.334 227.199 216.533 228.523 216.864 229.715H245.008C245.339 228.457 245.538 227.199 245.538 225.874C245.472 217.861 238.982 211.305 230.903 211.305Z" fill="url(#paint63_radial_31_1497)"/>
<path d="M239.247 225.873C239.247 221.238 235.539 217.529 230.903 217.529C226.268 217.529 222.559 221.238 222.559 225.873C222.559 227.264 222.89 228.588 223.486 229.714H238.254C238.85 228.588 239.247 227.264 239.247 225.873Z" fill="black"/>
<g filter="url(#filter24_f_31_1497)">
<path d="M244.212 224.162C244.212 219.454 240.384 216.316 239.349 215.367L234.641 219.92L237.538 225.818L244.212 224.162Z" fill="url(#paint64_linear_31_1497)"/>
</g>
<g filter="url(#filter25_f_31_1497)">
<ellipse cx="226.507" cy="217.53" rx="6.36011" ry="3.2188" transform="rotate(-27.914 226.507 217.53)" fill="#C7A7A3" fill-opacity="0.9"/>
<ellipse cx="226.507" cy="217.53" rx="6.36011" ry="3.2188" transform="rotate(-27.914 226.507 217.53)" fill="url(#paint65_radial_31_1497)"/>
</g>
<g filter="url(#filter26_f_31_1497)">
<path d="M293.711 183.457C300.733 182.228 314.427 182.579 323.907 189.953" stroke="url(#paint66_linear_31_1497)" stroke-width="0.5" stroke-linecap="round"/>
</g>
<g filter="url(#filter27_f_31_1497)">
<path d="M208.49 191.924C213.832 187.203 225.496 182.231 239.956 184.536" stroke="url(#paint67_linear_31_1497)" stroke-width="0.5" stroke-linecap="round"/>
</g>
<g filter="url(#filter28_f_31_1497)">
<path d="M192.587 151.671V166.326C192.459 168.752 191.437 174.18 188.372 176.479" stroke="url(#paint68_linear_31_1497)" stroke-width="0.25" stroke-linecap="round"/>
</g>
<defs>
<filter id="filter0_f_31_1497" x="68.2295" y="102.321" width="2.31597" height="27.0231" filterUnits="userSpaceOnUse" color-interpolation-filters="sRGB">
<feFlood flood-opacity="0" result="BackgroundImageFix"/>
<feBlend mode="normal" in="SourceGraphic" in2="BackgroundImageFix" result="shape"/>
<feGaussianBlur stdDeviation="0.05" result="effect1_foregroundBlur_31_1497"/>
</filter>
<filter id="filter1_f_31_1497" x="89.6064" y="96.4127" width="1.24175" height="31.857" filterUnits="userSpaceOnUse" color-interpolation-filters="sRGB">
<feFlood flood-opacity="0" result="BackgroundImageFix"/>
<feBlend mode="normal" in="SourceGraphic" in2="BackgroundImageFix" result="shape"/>
<feGaussianBlur stdDeviation="0.05" result="effect1_foregroundBlur_31_1497"/>
</filter>
<filter id="filter2_f_31_1497" x="109.909" y="104.684" width="3.49761" height="19.6109" filterUnits="userSpaceOnUse" color-interpolation-filters="sRGB">
<feFlood flood-opacity="0" result="BackgroundImageFix"/>
<feBlend mode="normal" in="SourceGraphic" in2="BackgroundImageFix" result="shape"/>
<feGaussianBlur stdDeviation="0.05" result="effect1_foregroundBlur_31_1497"/>
</filter>
<filter id="filter3_f_31_1497" x="58.502" y="97.0732" width="6.13765" height="37.0552" filterUnits="userSpaceOnUse" color-interpolation-filters="sRGB">
<feFlood flood-opacity="0" result="BackgroundImageFix"/>
<feBlend mode="normal" in="SourceGraphic" in2="BackgroundImageFix" result="shape"/>
<feGaussianBlur stdDeviation="0.2" result="effect1_foregroundBlur_31_1497"/>
</filter>
<filter id="filter4_f_31_1497" x="81.7033" y="83.9595" width="1.1999" height="43.2683" filterUnits="userSpaceOnUse" color-interpolation-filters="sRGB">
<feFlood flood-opacity="0" result="BackgroundImageFix"/>
<feBlend mode="normal" in="SourceGraphic" in2="BackgroundImageFix" result="shape"/>
<feGaussianBlur stdDeviation="0.2" result="effect1_foregroundBlur_31_1497"/>
</filter>
<filter id="filter5_f_31_1497" x="102.973" y="71.4134" width="5.17354" height="55.059" filterUnits="userSpaceOnUse" color-interpolation-filters="sRGB">
<feFlood flood-opacity="0" result="BackgroundImageFix"/>
<feBlend mode="normal" in="SourceGraphic" in2="BackgroundImageFix" result="shape"/>
<feGaussianBlur stdDeviation="0.2" result="effect1_foregroundBlur_31_1497"/>
</filter>
<filter id="filter6_f_31_1497" x="122.207" y="85.7745" width="12.3609" height="47.7288" filterUnits="userSpaceOnUse" color-interpolation-filters="sRGB">
<feFlood flood-opacity="0" result="BackgroundImageFix"/>
<feBlend mode="normal" in="SourceGraphic" in2="BackgroundImageFix" result="shape"/>
<feGaussianBlur stdDeviation="0.2" result="effect1_foregroundBlur_31_1497"/>
</filter>
<filter id="filter7_f_31_1497" x="58.6927" y="130.071" width="11.7718" height="11.0199" filterUnits="userSpaceOnUse" color-interpolation-filters="sRGB">
<feFlood flood-opacity="0" result="BackgroundImageFix"/>
<feBlend mode="normal" in="SourceGraphic" in2="BackgroundImageFix" result="shape"/>
<feGaussianBlur stdDeviation="0.1" result="effect1_foregroundBlur_31_1497"/>
</filter>
<filter id="filter8_f_31_1497" x="81.3642" y="127.215" width="7.72666" height="6.09052" filterUnits="userSpaceOnUse" color-interpolation-filters="sRGB">
<feFlood flood-opacity="0" result="BackgroundImageFix"/>
<feBlend mode="normal" in="SourceGraphic" in2="BackgroundImageFix" result="shape"/>
<feGaussianBlur stdDeviation="0.1" result="effect1_foregroundBlur_31_1497"/>
</filter>
<filter id="filter9_f_31_1497" x="98.7607" y="124.579" width="10.3916" height="6.41282" filterUnits="userSpaceOnUse" color-interpolation-filters="sRGB">
<feFlood flood-opacity="0" result="BackgroundImageFix"/>
<feBlend mode="normal" in="SourceGraphic" in2="BackgroundImageFix" result="shape"/>
<feGaussianBlur stdDeviation="0.1" result="effect1_foregroundBlur_31_1497"/>
</filter>
<filter id="filter10_f_31_1497" x="104.445" y="223.008" width="80.1393" height="119.469" filterUnits="userSpaceOnUse" color-interpolation-filters="sRGB">
<feFlood flood-opacity="0" result="BackgroundImageFix"/>
<feBlend mode="normal" in="SourceGraphic" in2="BackgroundImageFix" result="shape"/>
<feGaussianBlur stdDeviation="0.75" result="effect1_foregroundBlur_31_1497"/>
</filter>
<filter id="filter11_i_31_1497" x="161.817" y="202.97" width="54.7164" height="54.5164" filterUnits="userSpaceOnUse" color-interpolation-filters="sRGB">
<feFlood flood-opacity="0" result="BackgroundImageFix"/>
<feBlend mode="normal" in="SourceGraphic" in2="BackgroundImageFix" result="shape"/>
<feColorMatrix in="SourceAlpha" type="matrix" values="0 0 0 0 0 0 0 0 0 0 0 0 0 0 0 0 0 0 127 0" result="hardAlpha"/>
<feOffset dx="0.2"/>
<feGaussianBlur stdDeviation="0.15"/>
<feComposite in2="hardAlpha" operator="arithmetic" k2="-1" k3="1"/>
<feColorMatrix type="matrix" values="0 0 0 0 0.917647 0 0 0 0 0.694118 0 0 0 0 0.607843 0 0 0 1 0"/>
<feBlend mode="normal" in2="shape" result="effect1_innerShadow_31_1497"/>
</filter>
<filter id="filter12_f_31_1497" x="172.331" y="213.482" width="33.4909" height="33.4909" filterUnits="userSpaceOnUse" color-interpolation-filters="sRGB">
<feFlood flood-opacity="0" result="BackgroundImageFix"/>
<feBlend mode="normal" in="SourceGraphic" in2="BackgroundImageFix" result="shape"/>
<feGaussianBlur stdDeviation="0.25" result="effect1_foregroundBlur_31_1497"/>
</filter>
<filter id="filter13_i_31_1497" x="317.148" y="202.72" width="54.7664" height="54.7664" filterUnits="userSpaceOnUse" color-interpolation-filters="sRGB">
<feFlood flood-opacity="0" result="BackgroundImageFix"/>
<feBlend mode="normal" in="SourceGraphic" in2="BackgroundImageFix" result="shape"/>
<feColorMatrix in="SourceAlpha" type="matrix" values="0 0 0 0 0 0 0 0 0 0 0 0 0 0 0 0 0 0 127 0" result="hardAlpha"/>
<feOffset dx="0.25" dy="-0.25"/>
<feGaussianBlur stdDeviation="0.25"/>
<feComposite in2="hardAlpha" operator="arithmetic" k2="-1" k3="1"/>
<feColorMatrix type="matrix" values="0 0 0 0 0.843137 0 0 0 0 0.623529 0 0 0 0 0.580392 0 0 0 1 0"/>
<feBlend mode="normal" in2="shape" result="effect1_innerShadow_31_1497"/>
</filter>
<filter id="filter14_f_31_1497" x="327.66" y="213.482" width="33.491" height="33.4909" filterUnits="userSpaceOnUse" color-interpolation-filters="sRGB">
<feFlood flood-opacity="0" result="BackgroundImageFix"/>
<feBlend mode="normal" in="SourceGraphic" in2="BackgroundImageFix" result="shape"/>
<feGaussianBlur stdDeviation="0.25" result="effect1_foregroundBlur_31_1497"/>
</filter>
<filter id="filter15_i_31_1497" x="182.38" y="138.394" width="169.376" height="196.636" filterUnits="userSpaceOnUse" color-interpolation-filters="sRGB">
<feFlood flood-opacity="0" result="BackgroundImageFix"/>
<feBlend mode="normal" in="SourceGraphic" in2="BackgroundImageFix" result="shape"/>
<feColorMatrix in="SourceAlpha" type="matrix" values="0 0 0 0 0 0 0 0 0 0 0 0 0 0 0 0 0 0 127 0" result="hardAlpha"/>
<feOffset dy="0.25"/>
<feGaussianBlur stdDeviation="0.375"/>
<feComposite in2="hardAlpha" operator="arithmetic" k2="-1" k3="1"/>
<feColorMatrix type="matrix" values="0 0 0 0 0.819608 0 0 0 0 0.615686 0 0 0 0 0.509804 0 0 0 1 0"/>
<feBlend mode="normal" in2="shape" result="effect1_innerShadow_31_1497"/>
</filter>
<filter id="filter16_f_31_1497" x="264.47" y="136.394" width="76.2305" height="55.5967" filterUnits="userSpaceOnUse" color-interpolation-filters="sRGB">
<feFlood flood-opacity="0" result="BackgroundImageFix"/>
<feBlend mode="normal" in="SourceGraphic" in2="BackgroundImageFix" result="shape"/>
<feGaussianBlur stdDeviation="1" result="effect1_foregroundBlur_31_1497"/>
</filter>
<filter id="filter17_i_31_1497" x="163.721" y="89.291" width="205.753" height="131.831" filterUnits="userSpaceOnUse" color-interpolation-filters="sRGB">
<feFlood flood-opacity="0" result="BackgroundImageFix"/>
<feBlend mode="normal" in="SourceGraphic" in2="BackgroundImageFix" result="shape"/>
<feColorMatrix in="SourceAlpha" type="matrix" values="0 0 0 0 0 0 0 0 0 0 0 0 0 0 0 0 0 0 127 0" result="hardAlpha"/>
<feOffset dy="-0.5"/>
<feGaussianBlur stdDeviation="0.375"/>
<feComposite in2="hardAlpha" operator="arithmetic" k2="-1" k3="1"/>
<feColorMatrix type="matrix" values="0 0 0 0 0.0392157 0 0 0 0 0.00784314 0 0 0 0 0.0196078 0 0 0 1 0"/>
<feBlend mode="normal" in2="shape" result="effect1_innerShadow_31_1497"/>
</filter>
<filter id="filter18_f_31_1497" x="247.577" y="222.872" width="30.2358" height="45.2772" filterUnits="userSpaceOnUse" color-interpolation-filters="sRGB">
<feFlood flood-opacity="0" result="BackgroundImageFix"/>
<feBlend mode="normal" in="SourceGraphic" in2="BackgroundImageFix" result="shape"/>
<feGaussianBlur stdDeviation="0.375" result="effect1_foregroundBlur_31_1497"/>
</filter>
<filter id="filter19_f_31_1497" x="251.026" y="220.71" width="31.1441" height="44.2773" filterUnits="userSpaceOnUse" color-interpolation-filters="sRGB">
<feFlood flood-opacity="0" result="BackgroundImageFix"/>
<feBlend mode="normal" in="SourceGraphic" in2="BackgroundImageFix" result="shape"/>
<feGaussianBlur stdDeviation="0.125" result="effect1_foregroundBlur_31_1497"/>
</filter>
<filter id="filter20_i_31_1497" x="285.9" y="176.782" width="44.8185" height="24.4487" filterUnits="userSpaceOnUse" color-interpolation-filters="sRGB">
<feFlood flood-opacity="0" result="BackgroundImageFix"/>
<feBlend mode="normal" in="SourceGraphic" in2="BackgroundImageFix" result="shape"/>
<feColorMatrix in="SourceAlpha" type="matrix" values="0 0 0 0 0 0 0 0 0 0 0 0 0 0 0 0 0 0 127 0" result="hardAlpha"/>
<feOffset dx="0.25" dy="-0.4"/>
<feGaussianBlur stdDeviation="0.3"/>
<feComposite in2="hardAlpha" operator="arithmetic" k2="-1" k3="1"/>
<feColorMatrix type="matrix" values="0 0 0 0 0.0431373 0 0 0 0 0.0196078 0 0 0 0 0.027451 0 0 0 1 0"/>
<feBlend mode="normal" in2="shape" result="effect1_innerShadow_31_1497"/>
</filter>
<filter id="filter21_i_31_1497" x="201.849" y="176.782" width="44.8211" height="24.4487" filterUnits="userSpaceOnUse" color-interpolation-filters="sRGB">
<feFlood flood-opacity="0" result="BackgroundImageFix"/>
<feBlend mode="normal" in="SourceGraphic" in2="BackgroundImageFix" result="shape"/>
<feColorMatrix in="SourceAlpha" type="matrix" values="0 0 0 0 0 0 0 0 0 0 0 0 0 0 0 0 0 0 127 0" result="hardAlpha"/>
<feOffset dx="0.25" dy="-0.4"/>
<feGaussianBlur stdDeviation="0.3"/>
<feComposite in2="hardAlpha" operator="arithmetic" k2="-1" k3="1"/>
<feColorMatrix type="matrix" values="0 0 0 0 0.0431373 0 0 0 0 0.0196078 0 0 0 0 0.027451 0 0 0 1 0"/>
<feBlend mode="normal" in2="shape" result="effect1_innerShadow_31_1497"/>
</filter>
<filter id="filter22_f_31_1497" x="291.723" y="213.445" width="9.77928" height="8.30162" filterUnits="userSpaceOnUse" color-interpolation-filters="sRGB">
<feFlood flood-opacity="0" result="BackgroundImageFix"/>
<feBlend mode="normal" in="SourceGraphic" in2="BackgroundImageFix" result="shape"/>
<feGaussianBlur stdDeviation="0.05" result="effect1_foregroundBlur_31_1497"/>
</filter>
<filter id="filter23_f_31_1497" x="306.964" y="216.203" width="8.41868" height="8.78086" filterUnits="userSpaceOnUse" color-interpolation-filters="sRGB">
<feFlood flood-opacity="0" result="BackgroundImageFix"/>
<feBlend mode="normal" in="SourceGraphic" in2="BackgroundImageFix" result="shape"/>
<feGaussianBlur stdDeviation="0.1" result="effect1_foregroundBlur_31_1497"/>
</filter>
<filter id="filter24_f_31_1497" x="234.441" y="215.167" width="9.97117" height="10.8507" filterUnits="userSpaceOnUse" color-interpolation-filters="sRGB">
<feFlood flood-opacity="0" result="BackgroundImageFix"/>
<feBlend mode="normal" in="SourceGraphic" in2="BackgroundImageFix" result="shape"/>
<feGaussianBlur stdDeviation="0.1" result="effect1_foregroundBlur_31_1497"/>
</filter>
<filter id="filter25_f_31_1497" x="220.587" y="213.312" width="11.8401" height="8.43535" filterUnits="userSpaceOnUse" color-interpolation-filters="sRGB">
<feFlood flood-opacity="0" result="BackgroundImageFix"/>
<feBlend mode="normal" in="SourceGraphic" in2="BackgroundImageFix" result="shape"/>
<feGaussianBlur stdDeviation="0.05" result="effect1_foregroundBlur_31_1497"/>
</filter>
<filter id="filter26_f_31_1497" x="292.961" y="182.164" width="31.6964" height="8.53857" filterUnits="userSpaceOnUse" color-interpolation-filters="sRGB">
<feFlood flood-opacity="0" result="BackgroundImageFix"/>
<feBlend mode="normal" in="SourceGraphic" in2="BackgroundImageFix" result="shape"/>
<feGaussianBlur stdDeviation="0.25" result="effect1_foregroundBlur_31_1497"/>
</filter>
<filter id="filter27_f_31_1497" x="207.74" y="183.204" width="32.9659" height="9.4693" filterUnits="userSpaceOnUse" color-interpolation-filters="sRGB">
<feFlood flood-opacity="0" result="BackgroundImageFix"/>
<feBlend mode="normal" in="SourceGraphic" in2="BackgroundImageFix" result="shape"/>
<feGaussianBlur stdDeviation="0.25" result="effect1_foregroundBlur_31_1497"/>
</filter>
<filter id="filter28_f_31_1497" x="187.997" y="151.296" width="4.96448" height="25.5576" filterUnits="userSpaceOnUse" color-interpolation-filters="sRGB">
<feFlood flood-opacity="0" result="BackgroundImageFix"/>
<feBlend mode="normal" in="SourceGraphic" in2="BackgroundImageFix" result="shape"/>
<feGaussianBlur stdDeviation="0.125" result="effect1_foregroundBlur_31_1497"/>
</filter>
<radialGradient id="paint0_radial_31_1497" cx="0" cy="0" r="1" gradientUnits="userSpaceOnUse" gradientTransform="translate(86.0028 193.882) rotate(-68.8849) scale(89.0615 106.546)">
<stop offset="0.474886" stop-color="#F0BBA8"/>
<stop offset="1" stop-color="#F4BDA7"/>
</radialGradient>
<radialGradient id="paint1_radial_31_1497" cx="0" cy="0" r="1" gradientUnits="userSpaceOnUse" gradientTransform="translate(144.635 167.95) rotate(130.764) scale(131.616 25.8846)">
<stop offset="0.146595" stop-color="#BE8479"/>
<stop offset="1" stop-color="#C38E7C" stop-opacity="0"/>
</radialGradient>
<linearGradient id="paint2_linear_31_1497" x1="92.6428" y1="202.969" x2="92.6428" y2="179.552" gradientUnits="userSpaceOnUse">
<stop stop-color="#DD9C7F"/>
<stop offset="1" stop-color="#DD9C7F" stop-opacity="0"/>
</linearGradient>
<radialGradient id="paint3_radial_31_1497" cx="0" cy="0" r="1" gradientUnits="userSpaceOnUse" gradientTransform="translate(68.4729 100.204) rotate(85.0559) scale(31.1609 4.63558)">
<stop offset="0.07668" stop-color="#E1A587"/>
<stop offset="1" stop-color="#E1A587" stop-opacity="0"/>
</radialGradient>
<radialGradient id="paint4_radial_31_1497" cx="0" cy="0" r="1" gradientUnits="userSpaceOnUse" gradientTransform="translate(91.1389 84.1983) rotate(90.7884) scale(46.8404 3.65791)">
<stop stop-color="#E1A587"/>
<stop offset="1" stop-color="#E1A587" stop-opacity="0"/>
</radialGradient>
<radialGradient id="paint5_radial_31_1497" cx="0" cy="0" r="1" gradientUnits="userSpaceOnUse" gradientTransform="translate(118.209 73.6709) rotate(99.6086) scale(55.3468 6.86351)">
<stop offset="0.201687" stop-color="#E1A587"/>
<stop offset="1" stop-color="#E1A587" stop-opacity="0"/>
</radialGradient>
<radialGradient id="paint6_radial_31_1497" cx="0" cy="0" r="1" gradientUnits="userSpaceOnUse" gradientTransform="translate(138.816 78.6279) rotate(131.934) scale(13.6393 11.9818)">
<stop stop-color="#FFD2BA"/>
<stop offset="1" stop-color="#FFD2BA" stop-opacity="0"/>
</radialGradient>
<radialGradient id="paint7_radial_31_1497" cx="0" cy="0" r="1" gradientUnits="userSpaceOnUse" gradientTransform="translate(112.331 64.4999) rotate(121.412) scale(17.1586 10.601)">
<stop stop-color="#FFD2BA"/>
<stop offset="1" stop-color="#FFD2BA" stop-opacity="0"/>
</radialGradient>
<radialGradient id="paint8_radial_31_1497" cx="0" cy="0" r="1" gradientUnits="userSpaceOnUse" gradientTransform="translate(83.9553 72.6088) rotate(99.8411) scale(17.1053 13.1258)">
<stop stop-color="#FFD2BA"/>
<stop offset="1" stop-color="#FFD2BA" stop-opacity="0"/>
</radialGradient>
<radialGradient id="paint9_radial_31_1497" cx="0" cy="0" r="1" gradientUnits="userSpaceOnUse" gradientTransform="translate(59.8787 89.4624) rotate(98.1301) scale(13.3766 9.50952)">
<stop stop-color="#FFD2BA"/>
<stop offset="1" stop-color="#FFD2BA" stop-opacity="0"/>
</radialGradient>
<radialGradient id="paint10_radial_31_1497" cx="0" cy="0" r="1" gradientUnits="userSpaceOnUse" gradientTransform="translate(170.371 123.577) rotate(135) scale(21.2198 16.6052)">
<stop stop-color="#FFD2BA"/>
<stop offset="1" stop-color="#FFD2BA" stop-opacity="0"/>
</radialGradient>
<linearGradient id="paint11_linear_31_1497" x1="48.4274" y1="159.737" x2="58.3102" y2="158.447" gradientUnits="userSpaceOnUse">
<stop stop-color="#FFD5B9"/>
<stop offset="1" stop-color="#FFD5B9" stop-opacity="0"/>
</linearGradient>
<linearGradient id="paint12_linear_31_1497" x1="71.882" y1="102.504" x2="58.7972" y2="127.059" gradientUnits="userSpaceOnUse">
<stop stop-color="#D59776"/>
<stop offset="1" stop-color="#D59776" stop-opacity="0"/>
</linearGradient>
<linearGradient id="paint13_linear_31_1497" x1="91.4089" y1="96.6039" x2="73.5218" y2="110.07" gradientUnits="userSpaceOnUse">
<stop stop-color="#D59776"/>
<stop offset="1" stop-color="#D59776" stop-opacity="0"/>
</linearGradient>
<linearGradient id="paint14_linear_31_1497" x1="115.597" y1="104.855" x2="110.349" y2="126.365" gradientUnits="userSpaceOnUse">
<stop stop-color="#D59776"/>
<stop offset="1" stop-color="#D59776" stop-opacity="0"/>
</linearGradient>
<linearGradient id="paint15_linear_31_1497" x1="54.9106" y1="104.053" x2="60.6813" y2="139.902" gradientUnits="userSpaceOnUse">
<stop stop-color="#F1BEA1"/>
<stop offset="1" stop-color="#F1BEA1" stop-opacity="0"/>
</linearGradient>
<linearGradient id="paint16_linear_31_1497" x1="81.4554" y1="92.0466" x2="102.976" y2="115.11" gradientUnits="userSpaceOnUse">
<stop stop-color="#F1BEA1"/>
<stop offset="1" stop-color="#F1BEA1" stop-opacity="0"/>
</linearGradient>
<linearGradient id="paint17_linear_31_1497" x1="100.203" y1="81.6441" x2="115.358" y2="132.195" gradientUnits="userSpaceOnUse">
<stop stop-color="#F1BEA1"/>
<stop offset="1" stop-color="#F1BEA1" stop-opacity="0"/>
</linearGradient>
<linearGradient id="paint18_linear_31_1497" x1="113.329" y1="94.6987" x2="117.676" y2="141.881" gradientUnits="userSpaceOnUse">
<stop stop-color="#F1BEA1"/>
<stop offset="1" stop-color="#F1BEA1" stop-opacity="0"/>
</linearGradient>
<linearGradient id="paint19_linear_31_1497" x1="72.7133" y1="129.725" x2="57.697" y2="128.787" gradientUnits="userSpaceOnUse">
<stop stop-color="#EFB99B"/>
<stop offset="1" stop-color="#EFB99B" stop-opacity="0"/>
</linearGradient>
<linearGradient id="paint20_linear_31_1497" x1="90.1998" y1="127.365" x2="82.4442" y2="125.423" gradientUnits="userSpaceOnUse">
<stop stop-color="#EFB99B"/>
<stop offset="1" stop-color="#EFB99B" stop-opacity="0"/>
</linearGradient>
<linearGradient id="paint21_linear_31_1497" x1="110.843" y1="124.791" x2="99.7988" y2="121.861" gradientUnits="userSpaceOnUse">
<stop stop-color="#EFB99B"/>
<stop offset="1" stop-color="#EFB99B" stop-opacity="0"/>
</linearGradient>
<linearGradient id="paint22_linear_31_1497" x1="63.0496" y1="205.734" x2="123.206" y2="205.734" gradientUnits="userSpaceOnUse">
<stop stop-color="#3688BF"/>
<stop offset="0.742857" stop-color="#1B6B9F"/>
</linearGradient>
<radialGradient id="paint23_radial_31_1497" cx="0" cy="0" r="1" gradientUnits="userSpaceOnUse" gradientTransform="translate(103.345 204.222) rotate(90) scale(15.2539 15.8984)">
<stop stop-color="#3983B7"/>
<stop offset="1" stop-color="#3983B7" stop-opacity="0"/>
</radialGradient>
<linearGradient id="paint24_linear_31_1497" x1="94.2556" y1="197.678" x2="94.2556" y2="201.223" gradientUnits="userSpaceOnUse">
<stop stop-color="#186A98"/>
<stop offset="1" stop-color="#186A98" stop-opacity="0"/>
</linearGradient>
<linearGradient id="paint25_linear_31_1497" x1="296.764" y1="457.068" x2="80.3858" y2="211.75" gradientUnits="userSpaceOnUse">
<stop stop-color="#38A2F1"/>
<stop offset="0.40082" stop-color="#268FD7"/>
</linearGradient>
<radialGradient id="paint26_radial_31_1497" cx="0" cy="0" r="1" gradientUnits="userSpaceOnUse" gradientTransform="translate(364.191 407.022) rotate(162.136) scale(125.437 134.162)">
<stop stop-color="#4AB7FF"/>
<stop offset="1" stop-color="#4AB7FF" stop-opacity="0"/>
</radialGradient>
<radialGradient id="paint27_radial_31_1497" cx="0" cy="0" r="1" gradientUnits="userSpaceOnUse" gradientTransform="translate(155.052 453.297) rotate(-90) scale(71.3905 41.001)">
<stop stop-color="#4496DB"/>
<stop offset="1" stop-color="#4496DB" stop-opacity="0"/>
</radialGradient>
<linearGradient id="paint28_linear_31_1497" x1="135.463" y1="399.685" x2="145.514" y2="333.318" gradientUnits="userSpaceOnUse">
<stop offset="0.100065" stop-color="#2A6BC6"/>
<stop offset="1" stop-color="#2A6BC6" stop-opacity="0"/>
</linearGradient>
<radialGradient id="paint29_radial_31_1497" cx="0" cy="0" r="1" gradientUnits="userSpaceOnUse" gradientTransform="translate(46.2915 211.75) rotate(90) scale(121.172 74.7656)">
<stop stop-color="#3394D1"/>
<stop offset="1" stop-color="#3394D1" stop-opacity="0"/>
</radialGradient>
<radialGradient id="paint30_radial_31_1497" cx="0" cy="0" r="1" gradientUnits="userSpaceOnUse" gradientTransform="translate(248.734 313.572) rotate(-167.876) scale(142.174 57.8152)">
<stop offset="0.286567" stop-color="#09538B"/>
<stop offset="1" stop-color="#1473AF" stop-opacity="0"/>
</radialGradient>
<radialGradient id="paint31_radial_31_1497" cx="0" cy="0" r="1" gradientUnits="userSpaceOnUse" gradientTransform="translate(166.876 251.793) rotate(-180) scale(78.2534 78.7682)">
<stop offset="0.174149" stop-color="#3473AB"/>
<stop offset="1" stop-color="#127CC2" stop-opacity="0"/>
</radialGradient>
<linearGradient id="paint32_linear_31_1497" x1="194.162" y1="372.519" x2="184.006" y2="353.332" gradientUnits="userSpaceOnUse">
<stop offset="0.350261" stop-color="#2790D8"/>
<stop offset="0.79384" stop-color="#2877CD" stop-opacity="0"/>
</linearGradient>
<linearGradient id="paint33_linear_31_1497" x1="101.494" y1="211.75" x2="101.494" y2="226.051" gradientUnits="userSpaceOnUse">
<stop stop-color="#408DC5"/>
<stop offset="1" stop-color="#408DC5" stop-opacity="0"/>
</linearGradient>
<radialGradient id="paint34_radial_31_1497" cx="0" cy="0" r="1" gradientUnits="userSpaceOnUse" gradientTransform="translate(266.741 320.425) rotate(90) scale(46.3801 56.9706)">
<stop offset="0.320388" stop-color="#B88790"/>
<stop offset="1" stop-color="#D7A49A"/>
</radialGradient>
<radialGradient id="paint35_radial_31_1497" cx="0" cy="0" r="1" gradientUnits="userSpaceOnUse" gradientTransform="translate(253.68 316.329) rotate(67.4579) scale(68.3026 73.2949)">
<stop offset="0.526665" stop-color="#D39F86" stop-opacity="0"/>
<stop offset="0.913794" stop-color="#D39F86"/>
</radialGradient>
<linearGradient id="paint36_linear_31_1497" x1="101.721" y1="235.228" x2="180.784" y2="349.095" gradientUnits="userSpaceOnUse">
<stop stop-color="#56A6FF"/>
<stop offset="1" stop-color="#56A6FF" stop-opacity="0"/>
</linearGradient>
<radialGradient id="paint37_radial_31_1497" cx="0" cy="0" r="1" gradientUnits="userSpaceOnUse" gradientTransform="translate(161.817 230.228) scale(28.6526 50.1424)">
<stop offset="0.350532" stop-color="#CF9888"/>
<stop offset="1" stop-color="#BE8C77"/>
</radialGradient>
<linearGradient id="paint38_linear_31_1497" x1="189.077" y1="234.778" x2="178.618" y2="234.778" gradientUnits="userSpaceOnUse">
<stop stop-color="#BA7C6B"/>
<stop offset="1" stop-color="#BE8474"/>
</linearGradient>
<linearGradient id="paint39_linear_31_1497" x1="362.144" y1="212.406" x2="348.777" y2="253.817" gradientUnits="userSpaceOnUse">
<stop stop-color="#FBD3BD"/>
<stop offset="1" stop-color="#F0B8A4"/>
</linearGradient>
<radialGradient id="paint40_radial_31_1497" cx="0" cy="0" r="1" gradientUnits="userSpaceOnUse" gradientTransform="translate(350.481 225.904) rotate(-36.0604) scale(16.6973 19.0578)">
<stop offset="0.542503" stop-color="#D9AA94"/>
<stop offset="1" stop-color="#D9AA94" stop-opacity="0"/>
</radialGradient>
<radialGradient id="paint41_radial_31_1497" cx="0" cy="0" r="1" gradientUnits="userSpaceOnUse" gradientTransform="translate(343.73 243.637) rotate(-61.4675) scale(28.0728 16.4311)">
<stop offset="0.754913" stop-color="#D6A38D" stop-opacity="0"/>
<stop offset="0.915553" stop-color="#D6A38D"/>
</radialGradient>
<radialGradient id="paint42_radial_31_1497" cx="0" cy="0" r="1" gradientUnits="userSpaceOnUse" gradientTransform="translate(344.406 230.228) rotate(44.7077) scale(5.95683 7.67918)">
<stop stop-color="#D5A58E"/>
<stop offset="1" stop-color="#D5A58E" stop-opacity="0"/>
</radialGradient>
<linearGradient id="paint43_linear_31_1497" x1="332.495" y1="236.588" x2="207.804" y2="255.168" gradientUnits="userSpaceOnUse">
<stop stop-color="#FFDAC0"/>
<stop offset="1" stop-color="#DAA594"/>
</linearGradient>
<radialGradient id="paint44_radial_31_1497" cx="0" cy="0" r="1" gradientUnits="userSpaceOnUse" gradientTransform="translate(267.068 198.797) rotate(90) scale(143.116 194.273)">
<stop offset="0.487013" stop-color="#E0AD9B" stop-opacity="0"/>
<stop offset="1" stop-color="#A77D91"/>
</radialGradient>
<linearGradient id="paint45_linear_31_1497" x1="174.471" y1="261.526" x2="229.301" y2="263.385" gradientUnits="userSpaceOnUse">
<stop stop-color="#A58787"/>
<stop offset="1" stop-color="#DEAD9D" stop-opacity="0"/>
</linearGradient>
<linearGradient id="paint46_linear_31_1497" x1="178.497" y1="280.606" x2="209.216" y2="279.512" gradientUnits="userSpaceOnUse">
<stop stop-color="#E8AD97"/>
<stop offset="1" stop-color="#E8AD97" stop-opacity="0"/>
</linearGradient>
<radialGradient id="paint47_radial_31_1497" cx="0" cy="0" r="1" gradientUnits="userSpaceOnUse" gradientTransform="translate(304.904 209.468) rotate(-90) scale(21.3414 26.2663)">
<stop stop-color="#F5B7A7"/>
<stop offset="1" stop-color="#F5B7A7" stop-opacity="0"/>
</radialGradient>
<radialGradient id="paint48_radial_31_1497" cx="0" cy="0" r="1" gradientUnits="userSpaceOnUse" gradientTransform="translate(230.482 208.921) rotate(-90) scale(22.7095 28.2412)">
<stop stop-color="#D0958D"/>
<stop offset="1" stop-color="#D0958D" stop-opacity="0"/>
</radialGradient>
<linearGradient id="paint49_linear_31_1497" x1="257.917" y1="187.853" x2="390.891" y2="140.245" gradientUnits="userSpaceOnUse">
<stop stop-color="#FFDEC4"/>
<stop offset="1" stop-color="#FFDEC4" stop-opacity="0"/>
</linearGradient>
<radialGradient id="paint50_radial_31_1497" cx="0" cy="0" r="1" gradientUnits="userSpaceOnUse" gradientTransform="translate(337.543 163.183) rotate(-74.8989) scale(50.001 18.5419)">
<stop stop-color="#464344"/>
<stop offset="1" stop-color="#464344" stop-opacity="0"/>
</radialGradient>
<radialGradient id="paint51_radial_31_1497" cx="0" cy="0" r="1" gradientUnits="userSpaceOnUse" gradientTransform="translate(310.724 134.449) rotate(5.25781) scale(62.714 33.7209)">
<stop offset="0.12243" stop-color="#4A4648"/>
<stop offset="1" stop-color="#4A4648" stop-opacity="0"/>
</radialGradient>
<radialGradient id="paint52_radial_31_1497" cx="0" cy="0" r="1" gradientUnits="userSpaceOnUse" gradientTransform="translate(266.597 89.791) rotate(90) scale(27.4168 42.4609)">
<stop stop-color="#423D3F"/>
<stop offset="1" stop-color="#423D3F" stop-opacity="0"/>
</radialGradient>
<radialGradient id="paint53_radial_31_1497" cx="0" cy="0" r="1" gradientUnits="userSpaceOnUse" gradientTransform="translate(161.303 201.113) rotate(-36.2349) scale(62.2241 97.4848)">
<stop stop-color="#463C39"/>
<stop offset="1" stop-color="#463C39" stop-opacity="0"/>
</radialGradient>
<linearGradient id="paint54_linear_31_1497" x1="252.488" y1="247.351" x2="267.807" y2="247.351" gradientUnits="userSpaceOnUse">
<stop stop-color="#DFA790"/>
<stop offset="1" stop-color="#DFA790" stop-opacity="0"/>
</linearGradient>
<linearGradient id="paint55_linear_31_1497" x1="281.92" y1="252.617" x2="265.174" y2="252.378" gradientUnits="userSpaceOnUse">
<stop stop-color="#FFDFC4"/>
<stop offset="1" stop-color="#FFDFC4" stop-opacity="0"/>
</linearGradient>
<linearGradient id="paint56_linear_31_1497" x1="269.774" y1="264.737" x2="269.774" y2="255.381" gradientUnits="userSpaceOnUse">
<stop stop-color="#DC9C96"/>
<stop offset="1" stop-color="#DC9C96" stop-opacity="0"/>
</linearGradient>
<radialGradient id="paint57_radial_31_1497" cx="0" cy="0" r="1" gradientUnits="userSpaceOnUse" gradientTransform="translate(271.941 256.46) rotate(90) scale(3.21489 10.3287)">
<stop stop-color="#FFD7C1"/>
<stop offset="1" stop-color="#FFD7C1" stop-opacity="0"/>
</radialGradient>
<linearGradient id="paint58_linear_31_1497" x1="268.65" y1="265.421" x2="268.65" y2="262.685" gradientUnits="userSpaceOnUse">
<stop stop-color="#D6938E"/>
<stop offset="1" stop-color="#D6938E" stop-opacity="0"/>
</linearGradient>
<linearGradient id="paint59_linear_31_1497" x1="249.665" y1="291.107" x2="256.767" y2="279.881" gradientUnits="userSpaceOnUse">
<stop stop-color="#D9A4A4"/>
<stop offset="0.663171" stop-color="#D9A4A4" stop-opacity="0"/>
</linearGradient>
<radialGradient id="paint60_radial_31_1497" cx="0" cy="0" r="1" gradientUnits="userSpaceOnUse" gradientTransform="translate(302.174 219.092) rotate(90) scale(13.2438 21.0657)">
<stop offset="0.80198" stop-color="#7D574A"/>
<stop offset="1" stop-color="#694B43"/>
<stop offset="1" stop-color="#804D49"/>
<stop offset="1" stop-color="#664944"/>
</radialGradient>
<radialGradient id="paint61_radial_31_1497" cx="0" cy="0" r="1" gradientUnits="userSpaceOnUse" gradientTransform="translate(298.449 220.466) rotate(-127.812) scale(6.17508 8.50161)">
<stop offset="0.765532" stop-color="#FFE6E2" stop-opacity="0"/>
<stop offset="0.966159" stop-color="#FFE6E2"/>
</radialGradient>
<linearGradient id="paint62_linear_31_1497" x1="314.872" y1="219.972" x2="309.751" y2="223.128" gradientUnits="userSpaceOnUse">
<stop stop-color="#B4948D"/>
<stop offset="1" stop-color="#B4948D" stop-opacity="0"/>
</linearGradient>
<radialGradient id="paint63_radial_31_1497" cx="0" cy="0" r="1" gradientUnits="userSpaceOnUse" gradientTransform="translate(230.936 219.093) rotate(90) scale(13.2445 21.0668)">
<stop offset="0.80198" stop-color="#7D574A"/>
<stop offset="1" stop-color="#694B43"/>
<stop offset="1" stop-color="#804D49"/>
<stop offset="1" stop-color="#664944"/>
</radialGradient>
<linearGradient id="paint64_linear_31_1497" x1="243.078" y1="219.972" x2="237.956" y2="223.128" gradientUnits="userSpaceOnUse">
<stop stop-color="#B4948D"/>
<stop offset="1" stop-color="#B4948D" stop-opacity="0"/>
</linearGradient>
<radialGradient id="paint65_radial_31_1497" cx="0" cy="0" r="1" gradientUnits="userSpaceOnUse" gradientTransform="translate(226.261 222.671) rotate(-90.897) scale(8.0663 9.69602)">
<stop offset="0.765532" stop-color="#FFE6E2" stop-opacity="0"/>
<stop offset="0.966159" stop-color="#FFE6E2"/>
</radialGradient>
<linearGradient id="paint66_linear_31_1497" x1="315.129" y1="185.037" x2="308.269" y2="171.018" gradientUnits="userSpaceOnUse">
<stop stop-color="#353435"/>
<stop offset="1" stop-color="#353435" stop-opacity="0"/>
</linearGradient>
<linearGradient id="paint67_linear_31_1497" x1="228.518" y1="182.952" x2="209.101" y2="174.808" gradientUnits="userSpaceOnUse">
<stop stop-color="#353435"/>
<stop offset="1" stop-color="#353435" stop-opacity="0"/>
</linearGradient>
<linearGradient id="paint68_linear_31_1497" x1="190.48" y1="150.059" x2="190.48" y2="185.278" gradientUnits="userSpaceOnUse">
<stop stop-color="#3C393A"/>
<stop offset="1" stop-color="#3C393A" stop-opacity="0"/>
</linearGradient>
</defs>
</svg>
